<svg width="573" height="137" viewBox="0 0 573 137" fill="none" xmlns="http://www.w3.org/2000/svg">
<g clip-path="url(#clip0_41_27340)">
<path d="M136.486 0H40.3536L40.4023 0.0486764L0 40.4501V136.486H96.1322L96.0835 136.437L136.486 96.0357V0Z" fill="#70FFBC"/>
<g clip-path="url(#clip1_41_27340)">
<path d="M124.436 11.9786V29.4676L103.937 37.8562L70.5421 51.5193L69.6502 51.884V57.2026L49.1504 64.8774V11.9786H69.6502V30.9796L103.937 16.9518V11.9786H124.436ZM104.031 61.307H124.531V33.5903L104.031 41.9779V61.307Z" fill="#0E2A1C"/>
</g>
</g>
<path d="M245.418 61.1255V27.0912H259.501V109.243H245.418V75.2086H200.469V109.243H186.386V27.0912H200.469V61.1255H245.418ZM350.175 68.1671C350.175 96.5681 331.398 110.064 308.278 110.064C285.275 110.064 266.498 96.5681 266.498 68.1671C266.498 39.5313 285.627 26.2697 307.574 26.2697H308.278C331.398 26.6218 350.175 39.766 350.175 68.1671ZM335.975 68.1671C335.975 49.9763 322.478 39.414 308.278 39.414H307.691C294.664 39.414 280.698 49.7416 280.698 68.1671C280.698 86.3578 294.312 96.9202 308.278 96.9202C323.3 96.9202 335.975 86.3578 335.975 68.1671ZM401.395 88.9397L428.623 27.0912H443.645V109.243H429.562V63.8248C429.562 59.1304 430.383 52.9103 431.439 48.2159H431.205C430.148 52.9103 428.271 58.7783 426.275 63.1206L406.559 109.243H394.471L374.637 63.1206C372.642 58.7783 370.764 52.9103 369.825 48.2159H369.591C370.53 52.9103 371.351 59.1304 371.351 63.8248V109.243H357.268V27.0912H372.29L399.517 88.9397C400.104 90.2307 400.339 91.7563 400.339 93.0473H400.574C400.574 91.7563 400.808 90.2307 401.395 88.9397ZM450.674 109.243V27.0912H464.757V109.243H450.674ZM532.907 82.7197V27.0912H546.99V109.243H532.32L489.132 53.145C487.254 50.6805 485.259 47.0423 484.32 43.8736L484.085 43.991C485.024 46.925 485.846 51.0326 485.846 54.2013V109.243H471.762V27.0912H486.432L529.621 83.7759C531.616 86.2404 533.494 90.1133 534.432 93.0473H534.667C533.728 89.8786 532.907 85.8884 532.907 82.7197ZM554.052 109.243V27.0912H568.135V109.243H554.052Z" fill="white"/>
<defs>
<clipPath id="clip0_41_27340">
<rect width="136.486" height="136.486" fill="white"/>
</clipPath>
<clipPath id="clip1_41_27340">
<rect width="75.3809" height="52.8989" fill="white" transform="translate(49.1504 11.9786)"/>
</clipPath>
</defs>
</svg>
