<svg width="573" height="137" viewBox="0 0 573 137" fill="none" xmlns="http://www.w3.org/2000/svg">
<g clip-path="url(#clip0_41_27761)">
<path d="M136.486 0H40.3536L40.4023 0.0486764L0 40.4501V136.486H96.1322L96.0835 136.437L136.486 96.0357V0Z" fill="#0E2A1C"/>
<g clip-path="url(#clip1_41_27761)">
<path d="M124.438 11.9786V29.4676L103.938 37.8562L70.544 51.5193L69.6522 51.884V57.2026L49.1523 64.8774V11.9786H69.6522V30.9796L103.938 16.9518V11.9786H124.438ZM104.033 61.307H124.533V33.5903L104.033 41.9779V61.307Z" fill="white"/>
</g>
</g>
<path d="M245.416 61.1255V27.0912H259.499V109.243H245.416V75.2086H200.467V109.243H186.384V27.0912H200.467V61.1255H245.416ZM350.173 68.1671C350.173 96.5681 331.396 110.064 308.276 110.064C285.273 110.064 266.496 96.5681 266.496 68.1671C266.496 39.5313 285.625 26.2697 307.572 26.2697H308.276C331.396 26.6218 350.173 39.766 350.173 68.1671ZM335.973 68.1671C335.973 49.9763 322.476 39.414 308.276 39.414H307.689C294.662 39.414 280.696 49.7416 280.696 68.1671C280.696 86.3578 294.31 96.9202 308.276 96.9202C323.298 96.9202 335.973 86.3578 335.973 68.1671ZM401.393 88.9397L428.621 27.0912H443.643V109.243H429.56V63.8248C429.56 59.1304 430.381 52.9103 431.437 48.2159H431.203C430.146 52.9103 428.269 58.7783 426.273 63.1206L406.557 109.243H394.469L374.635 63.1206C372.64 58.7783 370.762 52.9103 369.824 48.2159H369.589C370.528 52.9103 371.349 59.1304 371.349 63.8248V109.243H357.266V27.0912H372.288L399.516 88.9397C400.102 90.2307 400.337 91.7563 400.337 93.0473H400.572C400.572 91.7563 400.806 90.2307 401.393 88.9397ZM450.672 109.243V27.0912H464.756V109.243H450.672ZM532.905 82.7197V27.0912H546.988V109.243H532.318L489.13 53.145C487.252 50.6805 485.257 47.0423 484.318 43.8736L484.083 43.991C485.022 46.925 485.844 51.0326 485.844 54.2013V109.243H471.76V27.0912H486.43L529.619 83.7759C531.614 86.2404 533.492 90.1133 534.43 93.0473H534.665C533.726 89.8786 532.905 85.8884 532.905 82.7197ZM554.05 109.243V27.0912H568.133V109.243H554.05Z" fill="#0E2A1C"/>
<defs>
<clipPath id="clip0_41_27761">
<rect width="136.486" height="136.486" fill="white"/>
</clipPath>
<clipPath id="clip1_41_27761">
<rect width="75.3809" height="52.8989" fill="white" transform="translate(49.1523 11.9786)"/>
</clipPath>
</defs>
</svg>
